<?xml version="1.0" standalone="no"?>
<!DOCTYPE svg PUBLIC "-//W3C//DTD SVG 20010904//EN"
 "http://www.w3.org/TR/2001/REC-SVG-20010904/DTD/svg10.dtd">
<svg version="1.0" xmlns="http://www.w3.org/2000/svg"
 width="512.000000pt" height="512.000000pt" viewBox="0 0 512.000000 512.000000"
 preserveAspectRatio="xMidYMid meet">
<metadata>
Created by potrace 1.14, written by Peter Selinger 2001-2017
</metadata>
<g transform="translate(0.000000,512.000000) scale(0.100000,-0.100000)"
fill="#000000" stroke="none">
<path d="M2713 4180 c-3 -11 -9 -20 -13 -20 -4 0 -14 -15 -21 -32 -7 -18 -32
-63 -56 -101 -24 -37 -43 -69 -43 -71 0 -3 -98 -174 -130 -226 -5 -8 -37 -64
-71 -125 -34 -60 -81 -143 -105 -182 -24 -40 -44 -75 -44 -79 0 -3 -10 -20
-22 -37 -12 -17 -29 -45 -38 -61 -20 -38 -48 -87 -111 -194 -27 -45 -49 -85
-49 -88 0 -3 -9 -18 -19 -33 -11 -15 -34 -54 -52 -86 -17 -33 -36 -65 -40 -71
-6 -8 -172 -11 -551 -11 -524 -1 -693 -8 -723 -33 -6 -5 -15 -7 -19 -3 -4 4
-10 2 -14 -5 -5 -6 -17 -13 -29 -15 -21 -3 -124 -63 -175 -101 -36 -27 -137
-124 -163 -156 -51 -63 -121 -180 -130 -220 -1 -3 -6 -16 -12 -30 -20 -44 -26
-64 -30 -95 -3 -16 -8 -36 -13 -45 -22 -42 -30 -302 -11 -338 6 -11 8 -22 5
-25 -6 -5 -3 -16 31 -127 21 -65 76 -177 119 -240 32 -47 170 -190 184 -190 4
0 22 -13 40 -30 18 -16 36 -29 40 -28 4 1 27 -9 52 -22 25 -13 47 -25 50 -25
3 -1 12 -4 20 -8 38 -15 129 -39 165 -43 72 -8 310 -3 310 6 0 1 11 4 25 6 13
2 27 8 30 12 3 4 12 7 20 7 8 -1 24 5 35 12 11 6 23 12 28 12 13 0 81 35 95
48 7 7 17 13 21 13 10 0 158 143 186 180 40 51 131 197 186 300 14 25 37 64
52 87 15 24 27 47 27 52 0 5 3 11 8 13 4 2 16 21 27 43 11 22 22 42 25 45 7 5
83 139 89 155 2 6 9 17 16 25 7 8 25 39 40 68 15 29 31 55 36 58 5 3 7 10 4
15 -4 5 -1 9 4 9 6 0 11 4 11 9 0 4 24 48 53 97 l53 89 978 2 977 1 18 24 c10
12 20 28 22 33 6 16 163 289 169 295 3 3 11 15 17 27 9 17 10 24 1 29 -6 4
-445 7 -975 7 -530 0 -963 3 -963 6 0 3 10 22 22 41 33 53 116 197 156 270 20
36 40 69 44 75 5 5 39 63 76 129 l67 118 3 -226 c2 -206 4 -226 20 -227 18 0
397 0 422 1 13 0 15 76 15 623 l0 622 -233 3 c-227 2 -234 2 -239 -18z m-1063
-1841 c0 -5 -5 -9 -11 -9 -5 0 -8 -4 -5 -9 3 -5 -1 -14 -9 -21 -8 -7 -15 -17
-15 -22 0 -5 -25 -49 -55 -99 -30 -50 -55 -92 -55 -94 0 -2 -22 -41 -50 -88
-27 -47 -50 -90 -50 -95 0 -6 -4 -12 -8 -14 -4 -1 -19 -23 -34 -48 -14 -25
-57 -101 -97 -169 -39 -68 -71 -127 -71 -131 0 -17 -117 -107 -132 -102 -5 1
-8 -2 -8 -7 0 -5 -10 -11 -22 -14 -13 -3 -43 -11 -68 -18 -64 -17 -117 -18
-173 -3 -63 16 -137 47 -137 57 0 4 -6 7 -13 7 -7 0 -20 8 -28 18 -9 9 -26 24
-37 32 -12 8 -22 18 -22 23 0 4 -9 18 -21 30 -20 21 -84 137 -75 137 2 0 -2
21 -10 47 -16 54 -18 160 -3 218 5 22 11 47 13 55 18 75 112 205 180 252 55
38 106 62 123 59 6 -1 14 2 17 7 7 12 876 12 876 1z"/>
<path d="M3398 4020 c-2 -91 -2 -184 0 -207 l3 -43 748 0 748 0 11 23 c6 12
24 45 40 72 16 28 42 73 57 100 15 28 36 61 45 75 21 30 70 126 70 137 0 5
-387 8 -860 8 l-859 1 -3 -166z"/>
<path d="M2747 2162 c-16 -3 -17 -52 -17 -628 l0 -624 228 2 227 3 0 618 c0
350 -4 621 -9 624 -9 6 -401 10 -429 5z"/>
</g>
</svg>
