<?xml version="1.0" standalone="no"?>
<!DOCTYPE svg PUBLIC "-//W3C//DTD SVG 20010904//EN"
 "http://www.w3.org/TR/2001/REC-SVG-20010904/DTD/svg10.dtd">
<svg version="1.0" xmlns="http://www.w3.org/2000/svg"
 width="689.000000pt" height="690.000000pt" viewBox="0 0 689.000000 690.000000"
 preserveAspectRatio="xMidYMid meet">

<g transform="translate(0.000000,690.000000) scale(0.100000,-0.100000)"
fill="#ffffff" stroke="none">
<path d="M3625 5618 c-19 -29 -35 -56 -35 -60 0 -4 -18 -37 -40 -73 -22 -36
-40 -70 -40 -75 0 -6 -4 -10 -10 -10 -5 0 -10 -5 -10 -10 0 -6 -11 -28 -25
-50 -26 -41 -77 -132 -103 -185 -9 -16 -30 -52 -49 -80 -18 -27 -33 -55 -33
-62 0 -7 -4 -13 -10 -13 -5 0 -10 -6 -10 -14 0 -7 -8 -24 -19 -37 -10 -13 -31
-49 -47 -79 -15 -30 -40 -74 -56 -97 -15 -23 -28 -45 -28 -49 0 -3 -23 -45
-51 -93 -99 -165 -109 -182 -109 -191 0 -5 -3 -10 -7 -12 -5 -1 -15 -16 -24
-33 -9 -16 -41 -74 -72 -127 -32 -54 -57 -102 -57 -108 0 -5 -4 -10 -10 -10
-5 0 -10 -6 -10 -14 0 -8 -3 -16 -7 -18 -5 -1 -17 -19 -27 -38 -11 -19 -32
-60 -49 -90 -16 -30 -38 -67 -48 -82 -11 -14 -19 -29 -19 -33 0 -4 -19 -38
-42 -76 l-43 -69 -752 0 c-413 0 -754 -4 -757 -9 -3 -4 -47 -11 -98 -13 -54
-4 -94 -10 -96 -17 -2 -6 -15 -11 -28 -11 -13 0 -24 -4 -24 -10 0 -5 -7 -10
-16 -10 -18 0 -98 -35 -133 -60 -14 -9 -46 -30 -71 -46 -25 -16 -47 -31 -50
-34 -3 -3 -27 -23 -55 -45 -90 -72 -162 -152 -232 -255 -43 -64 -110 -194
-118 -230 -4 -16 -11 -32 -16 -35 -5 -4 -9 -17 -9 -31 0 -13 -4 -24 -9 -24 -4
0 -14 -28 -20 -62 -7 -35 -17 -88 -23 -118 -14 -70 -14 -348 0 -420 17 -87 32
-153 42 -175 5 -11 16 -42 26 -70 24 -68 89 -190 130 -246 19 -26 34 -49 34
-52 0 -5 174 -181 200 -201 8 -7 31 -23 50 -36 19 -13 42 -32 51 -42 10 -10
21 -18 25 -17 10 2 46 -11 54 -20 9 -11 80 -41 95 -41 8 0 15 -4 15 -9 0 -5
12 -11 28 -14 51 -10 61 -13 68 -20 4 -4 20 -7 35 -7 15 0 30 -4 34 -10 7 -11
45 -13 245 -13 209 1 240 3 240 14 0 5 13 9 29 9 17 0 33 5 36 10 3 6 17 10
30 10 13 0 26 4 29 9 3 5 18 12 33 15 33 8 137 58 141 69 2 4 10 7 18 7 8 0
14 4 14 9 0 5 8 12 19 16 10 3 61 47 113 98 97 94 184 204 234 293 15 27 38
65 51 84 12 19 23 40 23 47 0 7 5 13 10 13 6 0 10 7 10 15 0 8 4 15 9 15 5 0
11 8 14 17 7 21 58 112 115 206 23 37 42 71 42 76 0 5 3 11 8 13 4 2 14 17 23
33 9 17 39 70 67 118 28 49 54 97 57 108 4 10 11 19 16 19 5 0 9 4 9 10 0 5
16 34 35 64 19 30 35 57 35 60 0 3 18 35 40 71 22 36 40 69 40 73 0 4 16 31
35 59 19 29 35 57 35 62 0 5 6 16 13 23 6 8 22 32 33 54 l22 39 1324 3 1323 2
20 38 c11 20 34 60 51 88 17 28 35 60 38 72 4 12 12 22 17 22 5 0 9 4 9 9 0 5
29 59 65 121 36 62 65 116 65 121 0 5 4 9 8 9 7 0 32 57 32 73 0 4 -589 7
-1310 7 -720 0 -1310 2 -1310 5 0 6 50 96 70 125 10 14 21 35 24 48 4 12 12
22 17 22 5 0 9 4 9 9 0 5 29 59 65 121 36 62 65 116 65 120 0 5 3 10 8 12 4 2
14 17 23 33 9 17 42 75 74 130 32 55 69 120 83 145 38 68 46 80 54 80 5 0 8
-135 8 -300 l0 -300 305 0 305 0 0 845 0 845 -310 0 -309 0 -36 -52z m-1415
-2458 c0 -5 -4 -10 -8 -10 -4 0 -13 -12 -19 -27 -12 -29 -55 -106 -104 -186
-16 -26 -29 -52 -29 -57 0 -6 -4 -10 -10 -10 -5 0 -10 -7 -10 -15 0 -8 -4 -15
-8 -15 -4 0 -13 -12 -19 -27 -7 -16 -30 -59 -53 -98 -22 -38 -43 -78 -46 -87
-4 -10 -10 -18 -15 -18 -5 0 -9 -6 -9 -13 0 -7 -11 -28 -24 -47 -13 -19 -40
-66 -61 -105 -21 -38 -46 -82 -57 -97 -10 -14 -18 -31 -18 -37 0 -6 -4 -11 -8
-11 -4 0 -13 -12 -19 -27 -7 -16 -24 -48 -38 -72 -15 -24 -37 -65 -51 -91 -32
-61 -155 -170 -192 -170 -7 0 -12 -4 -12 -9 0 -5 -18 -12 -40 -16 -22 -4 -40
-11 -40 -16 0 -5 -15 -9 -34 -9 -19 0 -38 -4 -41 -10 -9 -15 -158 -12 -196 4
-19 8 -37 15 -41 15 -17 3 -45 14 -84 32 -23 10 -46 19 -53 19 -6 0 -11 5 -11
10 0 6 -5 10 -10 10 -6 0 -21 9 -33 20 -12 11 -37 32 -54 46 -18 14 -33 30
-33 35 0 6 -11 20 -25 33 -14 13 -25 28 -25 35 0 6 -3 11 -8 11 -9 0 -55 97
-76 161 -24 71 -34 194 -24 289 5 47 13 89 17 95 5 5 11 22 15 38 9 39 57 141
67 145 5 2 9 8 9 14 0 20 132 167 151 168 3 0 19 11 35 25 16 14 34 25 41 25
6 0 19 7 27 16 9 8 16 13 16 9 0 -3 10 0 23 7 12 7 30 11 40 9 9 -1 17 3 17 8
0 8 180 11 590 11 387 0 590 -3 590 -10z"/>
<path d="M4570 5370 l0 -280 1006 0 c810 0 1008 3 1017 13 12 13 29 42 70 122
12 22 36 63 54 92 18 29 33 57 33 63 0 5 3 10 8 10 4 0 12 10 18 23 19 40 86
161 100 182 8 11 14 27 14 37 0 17 -55 18 -1160 18 l-1160 0 0 -280z"/>
<path d="M3670 2075 l0 -845 305 0 305 0 0 845 0 845 -305 0 -305 0 0 -845z"/>
</g>
</svg>
