<?xml version="1.0" standalone="no"?>
<!DOCTYPE svg PUBLIC "-//W3C//DTD SVG 20010904//EN"
 "http://www.w3.org/TR/2001/REC-SVG-20010904/DTD/svg10.dtd">
<svg version="1.0" xmlns="http://www.w3.org/2000/svg"
 width="689.000000pt" height="500.000000pt" viewBox="0 0 689.000000 500.000000"
 preserveAspectRatio="xMidYMid meet">

<g transform="translate(0.000000,500.000000) scale(0.100000,-0.100000)"
fill="#ffffff" stroke="none">
<path d="M3627 4658 c-13 -18 -50 -79 -83 -136 -32 -57 -68 -118 -78 -135 -10
-18 -49 -86 -86 -152 -37 -66 -91 -160 -120 -210 -29 -49 -80 -137 -113 -195
-74 -131 -201 -350 -237 -410 -15 -25 -58 -99 -95 -165 -38 -66 -78 -136 -90
-155 -12 -19 -62 -105 -110 -191 l-88 -156 -741 -6 c-454 -4 -780 -10 -841
-17 -337 -39 -697 -338 -847 -702 -77 -188 -93 -274 -93 -503 1 -208 15 -291
77 -452 100 -261 333 -521 558 -622 112 -51 131 -58 180 -71 25 -7 59 -17 75
-24 45 -17 437 -15 495 3 60 18 101 31 125 41 100 40 134 55 157 71 14 11 29
19 32 19 10 0 47 32 134 115 133 127 194 207 307 405 18 30 94 161 169 290 76
129 154 265 174 303 19 37 39 67 43 67 4 0 9 6 11 13 2 7 65 122 142 255 l138
242 893 0 c490 0 1088 3 1327 7 l436 6 21 41 c52 101 93 171 102 174 5 2 9 7
9 12 0 8 107 204 131 240 5 8 16 29 23 45 l14 30 -376 6 c-208 3 -797 7 -1309
8 -513 0 -933 4 -933 9 0 4 18 39 41 77 23 39 45 80 50 93 5 12 13 22 19 22 5
0 10 4 10 9 0 8 99 191 130 241 5 8 60 103 122 210 l113 195 3 -302 2 -303
310 0 310 0 -2 843 -3 842 -307 3 -307 2 -24 -32z m-1594 -2477 l158 -6 -84
-145 c-308 -534 -409 -709 -469 -816 -98 -173 -185 -251 -328 -293 -25 -7 -55
-17 -68 -22 -85 -33 -299 14 -417 93 -92 61 -180 175 -226 291 -30 76 -33 92
-37 227 -4 136 -2 150 23 225 64 192 177 326 347 412 49 25 66 28 213 33 211
8 690 9 888 1z"/>
<path d="M4552 4393 l3 -278 960 -3 c528 -2 984 0 1013 3 45 6 56 11 68 33 8
15 37 67 65 115 27 48 55 98 62 110 6 12 19 31 28 42 23 29 119 213 119 229 0
22 -187 26 -1282 26 l-1038 0 2 -277z"/>
<path d="M3660 1095 l0 -845 305 0 305 0 0 845 0 845 -305 0 -305 0 0 -845z"/>
</g>
</svg>
